# xmcd
#
# Track frame offsets: 
#        150
#        11575
#        26597
#        39462
#        47622
#        61897
#        73277
#        95887
#        103662
#        113697
#        122660
#
# Disc length: 1775 seconds
#
# Revision: 0
# Processed by: cddbd v1.5.2PL0 Copyright (c) Steve Scherf et al.
# Submitted via: ExactAudioCopy v0.95b4
#
DISCID=9306ed0b
DTITLE=Shad Cobb - Shad Cobb
DYEAR=2000
DGENRE=Bluegrass
TTITLE0=Mississippi Sawyer
TTITLE1=Chief Sitting Bull
TTITLE2=Lonely Waltz
TTITLE3=Sally Ann
TTITLE4=The Gypsy
TTITLE5=Sheebag and Sheemore
TTITLE6=Sally Goodin
TTITLE7=Coal Creek March
TTITLE8=Lonesome Whistle
TTITLE9=Growling Old Man and Old Woman
TTITLE10=Dailey's Reel
EXTD=
EXTT0=
EXTT1=
EXTT2=
EXTT3=
EXTT4=
EXTT5=
EXTT6=
EXTT7=
EXTT8=
EXTT9=
EXTT10=
PLAYORDER=
